solid disk
  facet normal 0 0 1
    outer loop
      vertex 1.0 0.0 0.0
      vertex 0.866 0.5 0.0
      vertex 0.0 0.0 0.0
    endloop
  endfacet
  facet normal 0 0 1
    outer loop
      vertex 0.866 0.5 0.0
      vertex 0.5 0.866 0.0
      vertex 0.0 0.0 0.0
    endloop
  endfacet
  facet normal 0 0 1
    outer loop
      vertex 0.5 0.866 0.0
      vertex 0.0 1.0 0.0
      vertex 0.0 0.0 0.0
    endloop
  endfacet
  facet normal 0 0 1
    outer loop
      vertex 0.0 1.0 0.0
      vertex -0.5 0.866 0.0
      vertex 0.0 0.0 0.0
    endloop
  endfacet
  facet normal 0 0 1
    outer loop
      vertex -0.5 0.866 0.0
      vertex -0.866 0.5 0.0
      vertex 0.0 0.0 0.0
    endloop
  endfacet
  facet normal 0 0 1
    outer loop
      vertex -0.866 0.5 0.0
      vertex -1.0 0.0 0.0
      vertex 0.0 0.0 0.0
    endloop
  endfacet
  facet normal 0 0 1
    outer loop
      vertex -1.0 0.0 0.0
      vertex -0.866 -0.5 0.0
      vertex 0.0 0.0 0.0
    endloop
  endfacet
  facet normal 0 0 1
    outer loop
      vertex -0.866 -0.5 0.0
      vertex -0.5 -0.866 0.0
      vertex 0.0 0.0 0.0
    endloop
  endfacet
  facet normal 0 0 1
    outer loop
      vertex -0.5 -0.866 0.0
      vertex 0.0 -1.0 0.0
      vertex 0.0 0.0 0.0
    endloop
  endfacet
  facet normal 0 0 1
    outer loop
      vertex 0.0 -1.0 0.0
      vertex 0.5 -0.866 0.0
      vertex 0.0 0.0 0.0
    endloop
  endfacet
  facet normal 0 0 1
    outer loop
      vertex 0.5 -0.866 0.0
      vertex 0.866 -0.5 0.0
      vertex 0.0 0.0 0.0
    endloop
  endfacet
  facet normal 0 0 1
    outer loop
      vertex 0.866 -0.5 0.0
      vertex 1.0 0.0 0.0
      vertex 0.0 0.0 0.0
    endloop
  endfacet
endsolid disk
