solid model_rocket
  facet normal -9.987955e-01 -4.906767e-02 0.000000e+00
    outer loop
      vertex 1.000000e+01 0.000000e+00 0.000000e+00
      vertex 1.000000e+01 0.000000e+00 1.000000e+02
      vertex 9.951847e+00 9.801714e-01 1.000000e+02
    endloop
  endfacet
  facet normal -9.987955e-01 -4.906767e-02 0.000000e+00
    outer loop
      vertex 1.000000e+01 0.000000e+00 0.000000e+00
      vertex 9.951847e+00 9.801714e-01 1.000000e+02
      vertex 9.951847e+00 9.801714e-01 0.000000e+00
    endloop
  endfacet
  facet normal -9.891765e-01 -1.467305e-01 0.000000e+00
    outer loop
      vertex 9.951847e+00 9.801714e-01 0.000000e+00
      vertex 9.951847e+00 9.801714e-01 1.000000e+02
      vertex 9.807853e+00 1.950903e+00 1.000000e+02
    endloop
  endfacet
  facet normal -9.891765e-01 -1.467305e-01 0.000000e+00
    outer loop
      vertex 9.951847e+00 9.801714e-01 0.000000e+00
      vertex 9.807853e+00 1.950903e+00 1.000000e+02
      vertex 9.807853e+00 1.950903e+00 0.000000e+00
    endloop
  endfacet
  facet normal -9.700313e-01 -2.429802e-01 0.000000e+00
    outer loop
      vertex 9.807853e+00 1.950903e+00 0.000000e+00
      vertex 9.807853e+00 1.950903e+00 1.000000e+02
      vertex 9.569403e+00 2.902847e+00 1.000000e+02
    endloop
  endfacet
  facet normal -9.700313e-01 -2.429802e-01 0.000000e+00
    outer loop
      vertex 9.807853e+00 1.950903e+00 0.000000e+00
      vertex 9.569403e+00 2.902847e+00 1.000000e+02
      vertex 9.569403e+00 2.902847e+00 0.000000e+00
    endloop
  endfacet
  facet normal -9.415441e-01 -3.368899e-01 0.000000e+00
    outer loop
      vertex 9.569403e+00 2.902847e+00 0.000000e+00
      vertex 9.569403e+00 2.902847e+00 1.000000e+02
      vertex 9.238795e+00 3.826834e+00 1.000000e+02
    endloop
  endfacet
  facet normal -9.415441e-01 -3.368899e-01 0.000000e+00
    outer loop
      vertex 9.569403e+00 2.902847e+00 0.000000e+00
      vertex 9.238795e+00 3.826834e+00 1.000000e+02
      vertex 9.238795e+00 3.826834e+00 0.000000e+00
    endloop
  endfacet
  facet normal -9.039893e-01 -4.275551e-01 0.000000e+00
    outer loop
      vertex 9.238795e+00 3.826834e+00 0.000000e+00
      vertex 9.238795e+00 3.826834e+00 1.000000e+02
      vertex 8.819213e+00 4.713967e+00 1.000000e+02
    endloop
  endfacet
  facet normal -9.039893e-01 -4.275551e-01 0.000000e+00
    outer loop
      vertex 9.238795e+00 3.826834e+00 0.000000e+00
      vertex 8.819213e+00 4.713967e+00 1.000000e+02
      vertex 8.819213e+00 4.713967e+00 0.000000e+00
    endloop
  endfacet
  facet normal -8.577286e-01 -5.141027e-01 0.000000e+00
    outer loop
      vertex 8.819213e+00 4.713967e+00 0.000000e+00
      vertex 8.819213e+00 4.713967e+00 1.000000e+02
      vertex 8.314696e+00 5.555702e+00 1.000000e+02
    endloop
  endfacet
  facet normal -8.577286e-01 -5.141027e-01 0.000000e+00
    outer loop
      vertex 8.819213e+00 4.713967e+00 0.000000e+00
      vertex 8.314696e+00 5.555702e+00 1.000000e+02
      vertex 8.314696e+00 5.555702e+00 0.000000e+00
    endloop
  endfacet
  facet normal -8.032075e-01 -5.956993e-01 0.000000e+00
    outer loop
      vertex 8.314696e+00 5.555702e+00 0.000000e+00
      vertex 8.314696e+00 5.555702e+00 1.000000e+02
      vertex 7.730105e+00 6.343933e+00 1.000000e+02
    endloop
  endfacet
  facet normal -8.032075e-01 -5.956993e-01 0.000000e+00
    outer loop
      vertex 8.314696e+00 5.555702e+00 0.000000e+00
      vertex 7.730105e+00 6.343933e+00 1.000000e+02
      vertex 7.730105e+00 6.343933e+00 0.000000e+00
    endloop
  endfacet
  facet normal -7.409511e-01 -6.715590e-01 0.000000e+00
    outer loop
      vertex 7.730105e+00 6.343933e+00 0.000000e+00
      vertex 7.730105e+00 6.343933e+00 1.000000e+02
      vertex 7.071068e+00 7.071068e+00 1.000000e+02
    endloop
  endfacet
  facet normal -7.409511e-01 -6.715590e-01 0.000000e+00
    outer loop
      vertex 7.730105e+00 6.343933e+00 0.000000e+00
      vertex 7.071068e+00 7.071068e+00 1.000000e+02
      vertex 7.071068e+00 7.071068e+00 0.000000e+00
    endloop
  endfacet
  facet normal -6.715590e-01 -7.409511e-01 0.000000e+00
    outer loop
      vertex 7.071068e+00 7.071068e+00 0.000000e+00
      vertex 7.071068e+00 7.071068e+00 1.000000e+02
      vertex 6.343933e+00 7.730105e+00 1.000000e+02
    endloop
  endfacet
  facet normal -6.715590e-01 -7.409511e-01 0.000000e+00
    outer loop
      vertex 7.071068e+00 7.071068e+00 0.000000e+00
      vertex 6.343933e+00 7.730105e+00 1.000000e+02
      vertex 6.343933e+00 7.730105e+00 0.000000e+00
    endloop
  endfacet
  facet normal -5.956993e-01 -8.032075e-01 0.000000e+00
    outer loop
      vertex 6.343933e+00 7.730105e+00 0.000000e+00
      vertex 6.343933e+00 7.730105e+00 1.000000e+02
      vertex 5.555702e+00 8.314696e+00 1.000000e+02
    endloop
  endfacet
  facet normal -5.956993e-01 -8.032075e-01 0.000000e+00
    outer loop
      vertex 6.343933e+00 7.730105e+00 0.000000e+00
      vertex 5.555702e+00 8.314696e+00 1.000000e+02
      vertex 5.555702e+00 8.314696e+00 0.000000e+00
    endloop
  endfacet
  facet normal -5.141027e-01 -8.577286e-01 0.000000e+00
    outer loop
      vertex 5.555702e+00 8.314696e+00 0.000000e+00
      vertex 5.555702e+00 8.314696e+00 1.000000e+02
      vertex 4.713967e+00 8.819213e+00 1.000000e+02
    endloop
  endfacet
  facet normal -5.141027e-01 -8.577286e-01 0.000000e+00
    outer loop
      vertex 5.555702e+00 8.314696e+00 0.000000e+00
      vertex 4.713967e+00 8.819213e+00 1.000000e+02
      vertex 4.713967e+00 8.819213e+00 0.000000e+00
    endloop
  endfacet
  facet normal -4.275551e-01 -9.039893e-01 0.000000e+00
    outer loop
      vertex 4.713967e+00 8.819213e+00 0.000000e+00
      vertex 4.713967e+00 8.819213e+00 1.000000e+02
      vertex 3.826834e+00 9.238795e+00 1.000000e+02
    endloop
  endfacet
  facet normal -4.275551e-01 -9.039893e-01 0.000000e+00
    outer loop
      vertex 4.713967e+00 8.819213e+00 0.000000e+00
      vertex 3.826834e+00 9.238795e+00 1.000000e+02
      vertex 3.826834e+00 9.238795e+00 0.000000e+00
    endloop
  endfacet
  facet normal -3.368899e-01 -9.415441e-01 0.000000e+00
    outer loop
      vertex 3.826834e+00 9.238795e+00 0.000000e+00
      vertex 3.826834e+00 9.238795e+00 1.000000e+02
      vertex 2.902847e+00 9.569403e+00 1.000000e+02
    endloop
  endfacet
  facet normal -3.368899e-01 -9.415441e-01 0.000000e+00
    outer loop
      vertex 3.826834e+00 9.238795e+00 0.000000e+00
      vertex 2.902847e+00 9.569403e+00 1.000000e+02
      vertex 2.902847e+00 9.569403e+00 0.000000e+00
    endloop
  endfacet
  facet normal -2.429802e-01 -9.700313e-01 0.000000e+00
    outer loop
      vertex 2.902847e+00 9.569403e+00 0.000000e+00
      vertex 2.902847e+00 9.569403e+00 1.000000e+02
      vertex 1.950903e+00 9.807853e+00 1.000000e+02
    endloop
  endfacet
  facet normal -2.429802e-01 -9.700313e-01 0.000000e+00
    outer loop
      vertex 2.902847e+00 9.569403e+00 0.000000e+00
      vertex 1.950903e+00 9.807853e+00 1.000000e+02
      vertex 1.950903e+00 9.807853e+00 0.000000e+00
    endloop
  endfacet
  facet normal -1.467305e-01 -9.891765e-01 0.000000e+00
    outer loop
      vertex 1.950903e+00 9.807853e+00 0.000000e+00
      vertex 1.950903e+00 9.807853e+00 1.000000e+02
      vertex 9.801714e-01 9.951847e+00 1.000000e+02
    endloop
  endfacet
  facet normal -1.467305e-01 -9.891765e-01 0.000000e+00
    outer loop
      vertex 1.950903e+00 9.807853e+00 0.000000e+00
      vertex 9.801714e-01 9.951847e+00 1.000000e+02
      vertex 9.801714e-01 9.951847e+00 0.000000e+00
    endloop
  endfacet
  facet normal -4.906767e-02 -9.987955e-01 0.000000e+00
    outer loop
      vertex 9.801714e-01 9.951847e+00 0.000000e+00
      vertex 9.801714e-01 9.951847e+00 1.000000e+02
      vertex 6.123234e-16 1.000000e+01 1.000000e+02
    endloop
  endfacet
  facet normal -4.906767e-02 -9.987955e-01 0.000000e+00
    outer loop
      vertex 9.801714e-01 9.951847e+00 0.000000e+00
      vertex 6.123234e-16 1.000000e+01 1.000000e+02
      vertex 6.123234e-16 1.000000e+01 0.000000e+00
    endloop
  endfacet
  facet normal 4.906767e-02 -9.987955e-01 0.000000e+00
    outer loop
      vertex 6.123234e-16 1.000000e+01 0.000000e+00
      vertex 6.123234e-16 1.000000e+01 1.000000e+02
      vertex -9.801714e-01 9.951847e+00 1.000000e+02
    endloop
  endfacet
  facet normal 4.906767e-02 -9.987955e-01 0.000000e+00
    outer loop
      vertex 6.123234e-16 1.000000e+01 0.000000e+00
      vertex -9.801714e-01 9.951847e+00 1.000000e+02
      vertex -9.801714e-01 9.951847e+00 0.000000e+00
    endloop
  endfacet
  facet normal 1.467305e-01 -9.891765e-01 0.000000e+00
    outer loop
      vertex -9.801714e-01 9.951847e+00 0.000000e+00
      vertex -9.801714e-01 9.951847e+00 1.000000e+02
      vertex -1.950903e+00 9.807853e+00 1.000000e+02
    endloop
  endfacet
  facet normal 1.467305e-01 -9.891765e-01 0.000000e+00
    outer loop
      vertex -9.801714e-01 9.951847e+00 0.000000e+00
      vertex -1.950903e+00 9.807853e+00 1.000000e+02
      vertex -1.950903e+00 9.807853e+00 0.000000e+00
    endloop
  endfacet
  facet normal 2.429802e-01 -9.700313e-01 0.000000e+00
    outer loop
      vertex -1.950903e+00 9.807853e+00 0.000000e+00
      vertex -1.950903e+00 9.807853e+00 1.000000e+02
      vertex -2.902847e+00 9.569403e+00 1.000000e+02
    endloop
  endfacet
  facet normal 2.429802e-01 -9.700313e-01 0.000000e+00
    outer loop
      vertex -1.950903e+00 9.807853e+00 0.000000e+00
      vertex -2.902847e+00 9.569403e+00 1.000000e+02
      vertex -2.902847e+00 9.569403e+00 0.000000e+00
    endloop
  endfacet
  facet normal 3.368899e-01 -9.415441e-01 0.000000e+00
    outer loop
      vertex -2.902847e+00 9.569403e+00 0.000000e+00
      vertex -2.902847e+00 9.569403e+00 1.000000e+02
      vertex -3.826834e+00 9.238795e+00 1.000000e+02
    endloop
  endfacet
  facet normal 3.368899e-01 -9.415441e-01 0.000000e+00
    outer loop
      vertex -2.902847e+00 9.569403e+00 0.000000e+00
      vertex -3.826834e+00 9.238795e+00 1.000000e+02
      vertex -3.826834e+00 9.238795e+00 0.000000e+00
    endloop
  endfacet
  facet normal 4.275551e-01 -9.039893e-01 0.000000e+00
    outer loop
      vertex -3.826834e+00 9.238795e+00 0.000000e+00
      vertex -3.826834e+00 9.238795e+00 1.000000e+02
      vertex -4.713967e+00 8.819213e+00 1.000000e+02
    endloop
  endfacet
  facet normal 4.275551e-01 -9.039893e-01 0.000000e+00
    outer loop
      vertex -3.826834e+00 9.238795e+00 0.000000e+00
      vertex -4.713967e+00 8.819213e+00 1.000000e+02
      vertex -4.713967e+00 8.819213e+00 0.000000e+00
    endloop
  endfacet
  facet normal 5.141027e-01 -8.577286e-01 0.000000e+00
    outer loop
      vertex -4.713967e+00 8.819213e+00 0.000000e+00
      vertex -4.713967e+00 8.819213e+00 1.000000e+02
      vertex -5.555702e+00 8.314696e+00 1.000000e+02
    endloop
  endfacet
  facet normal 5.141027e-01 -8.577286e-01 0.000000e+00
    outer loop
      vertex -4.713967e+00 8.819213e+00 0.000000e+00
      vertex -5.555702e+00 8.314696e+00 1.000000e+02
      vertex -5.555702e+00 8.314696e+00 0.000000e+00
    endloop
  endfacet
  facet normal 5.956993e-01 -8.032075e-01 0.000000e+00
    outer loop
      vertex -5.555702e+00 8.314696e+00 0.000000e+00
      vertex -5.555702e+00 8.314696e+00 1.000000e+02
      vertex -6.343933e+00 7.730105e+00 1.000000e+02
    endloop
  endfacet
  facet normal 5.956993e-01 -8.032075e-01 0.000000e+00
    outer loop
      vertex -5.555702e+00 8.314696e+00 0.000000e+00
      vertex -6.343933e+00 7.730105e+00 1.000000e+02
      vertex -6.343933e+00 7.730105e+00 0.000000e+00
    endloop
  endfacet
  facet normal 6.715590e-01 -7.409511e-01 0.000000e+00
    outer loop
      vertex -6.343933e+00 7.730105e+00 0.000000e+00
      vertex -6.343933e+00 7.730105e+00 1.000000e+02
      vertex -7.071068e+00 7.071068e+00 1.000000e+02
    endloop
  endfacet
  facet normal 6.715590e-01 -7.409511e-01 0.000000e+00
    outer loop
      vertex -6.343933e+00 7.730105e+00 0.000000e+00
      vertex -7.071068e+00 7.071068e+00 1.000000e+02
      vertex -7.071068e+00 7.071068e+00 0.000000e+00
    endloop
  endfacet
  facet normal 7.409511e-01 -6.715590e-01 0.000000e+00
    outer loop
      vertex -7.071068e+00 7.071068e+00 0.000000e+00
      vertex -7.071068e+00 7.071068e+00 1.000000e+02
      vertex -7.730105e+00 6.343933e+00 1.000000e+02
    endloop
  endfacet
  facet normal 7.409511e-01 -6.715590e-01 0.000000e+00
    outer loop
      vertex -7.071068e+00 7.071068e+00 0.000000e+00
      vertex -7.730105e+00 6.343933e+00 1.000000e+02
      vertex -7.730105e+00 6.343933e+00 0.000000e+00
    endloop
  endfacet
  facet normal 8.032075e-01 -5.956993e-01 0.000000e+00
    outer loop
      vertex -7.730105e+00 6.343933e+00 0.000000e+00
      vertex -7.730105e+00 6.343933e+00 1.000000e+02
      vertex -8.314696e+00 5.555702e+00 1.000000e+02
    endloop
  endfacet
  facet normal 8.032075e-01 -5.956993e-01 0.000000e+00
    outer loop
      vertex -7.730105e+00 6.343933e+00 0.000000e+00
      vertex -8.314696e+00 5.555702e+00 1.000000e+02
      vertex -8.314696e+00 5.555702e+00 0.000000e+00
    endloop
  endfacet
  facet normal 8.577286e-01 -5.141027e-01 0.000000e+00
    outer loop
      vertex -8.314696e+00 5.555702e+00 0.000000e+00
      vertex -8.314696e+00 5.555702e+00 1.000000e+02
      vertex -8.819213e+00 4.713967e+00 1.000000e+02
    endloop
  endfacet
  facet normal 8.577286e-01 -5.141027e-01 0.000000e+00
    outer loop
      vertex -8.314696e+00 5.555702e+00 0.000000e+00
      vertex -8.819213e+00 4.713967e+00 1.000000e+02
      vertex -8.819213e+00 4.713967e+00 0.000000e+00
    endloop
  endfacet
  facet normal 9.039893e-01 -4.275551e-01 0.000000e+00
    outer loop
      vertex -8.819213e+00 4.713967e+00 0.000000e+00
      vertex -8.819213e+00 4.713967e+00 1.000000e+02
      vertex -9.238795e+00 3.826834e+00 1.000000e+02
    endloop
  endfacet
  facet normal 9.039893e-01 -4.275551e-01 0.000000e+00
    outer loop
      vertex -8.819213e+00 4.713967e+00 0.000000e+00
      vertex -9.238795e+00 3.826834e+00 1.000000e+02
      vertex -9.238795e+00 3.826834e+00 0.000000e+00
    endloop
  endfacet
  facet normal 9.415441e-01 -3.368899e-01 0.000000e+00
    outer loop
      vertex -9.238795e+00 3.826834e+00 0.000000e+00
      vertex -9.238795e+00 3.826834e+00 1.000000e+02
      vertex -9.569403e+00 2.902847e+00 1.000000e+02
    endloop
  endfacet
  facet normal 9.415441e-01 -3.368899e-01 0.000000e+00
    outer loop
      vertex -9.238795e+00 3.826834e+00 0.000000e+00
      vertex -9.569403e+00 2.902847e+00 1.000000e+02
      vertex -9.569403e+00 2.902847e+00 0.000000e+00
    endloop
  endfacet
  facet normal 9.700313e-01 -2.429802e-01 0.000000e+00
    outer loop
      vertex -9.569403e+00 2.902847e+00 0.000000e+00
      vertex -9.569403e+00 2.902847e+00 1.000000e+02
      vertex -9.807853e+00 1.950903e+00 1.000000e+02
    endloop
  endfacet
  facet normal 9.700313e-01 -2.429802e-01 0.000000e+00
    outer loop
      vertex -9.569403e+00 2.902847e+00 0.000000e+00
      vertex -9.807853e+00 1.950903e+00 1.000000e+02
      vertex -9.807853e+00 1.950903e+00 0.000000e+00
    endloop
  endfacet
  facet normal 9.891765e-01 -1.467305e-01 0.000000e+00
    outer loop
      vertex -9.807853e+00 1.950903e+00 0.000000e+00
      vertex -9.807853e+00 1.950903e+00 1.000000e+02
      vertex -9.951847e+00 9.801714e-01 1.000000e+02
    endloop
  endfacet
  facet normal 9.891765e-01 -1.467305e-01 0.000000e+00
    outer loop
      vertex -9.807853e+00 1.950903e+00 0.000000e+00
      vertex -9.951847e+00 9.801714e-01 1.000000e+02
      vertex -9.951847e+00 9.801714e-01 0.000000e+00
    endloop
  endfacet
  facet normal 9.987955e-01 -4.906767e-02 0.000000e+00
    outer loop
      vertex -9.951847e+00 9.801714e-01 0.000000e+00
      vertex -9.951847e+00 9.801714e-01 1.000000e+02
      vertex -1.000000e+01 1.224647e-15 1.000000e+02
    endloop
  endfacet
  facet normal 9.987955e-01 -4.906767e-02 0.000000e+00
    outer loop
      vertex -9.951847e+00 9.801714e-01 0.000000e+00
      vertex -1.000000e+01 1.224647e-15 1.000000e+02
      vertex -1.000000e+01 1.224647e-15 0.000000e+00
    endloop
  endfacet
  facet normal 9.987955e-01 4.906767e-02 -0.000000e+00
    outer loop
      vertex -1.000000e+01 1.224647e-15 0.000000e+00
      vertex -1.000000e+01 1.224647e-15 1.000000e+02
      vertex -9.951847e+00 -9.801714e-01 1.000000e+02
    endloop
  endfacet
  facet normal 9.987955e-01 4.906767e-02 0.000000e+00
    outer loop
      vertex -1.000000e+01 1.224647e-15 0.000000e+00
      vertex -9.951847e+00 -9.801714e-01 1.000000e+02
      vertex -9.951847e+00 -9.801714e-01 0.000000e+00
    endloop
  endfacet
  facet normal 9.891765e-01 1.467305e-01 -0.000000e+00
    outer loop
      vertex -9.951847e+00 -9.801714e-01 0.000000e+00
      vertex -9.951847e+00 -9.801714e-01 1.000000e+02
      vertex -9.807853e+00 -1.950903e+00 1.000000e+02
    endloop
  endfacet
  facet normal 9.891765e-01 1.467305e-01 0.000000e+00
    outer loop
      vertex -9.951847e+00 -9.801714e-01 0.000000e+00
      vertex -9.807853e+00 -1.950903e+00 1.000000e+02
      vertex -9.807853e+00 -1.950903e+00 0.000000e+00
    endloop
  endfacet
  facet normal 9.700313e-01 2.429802e-01 -0.000000e+00
    outer loop
      vertex -9.807853e+00 -1.950903e+00 0.000000e+00
      vertex -9.807853e+00 -1.950903e+00 1.000000e+02
      vertex -9.569403e+00 -2.902847e+00 1.000000e+02
    endloop
  endfacet
  facet normal 9.700313e-01 2.429802e-01 0.000000e+00
    outer loop
      vertex -9.807853e+00 -1.950903e+00 0.000000e+00
      vertex -9.569403e+00 -2.902847e+00 1.000000e+02
      vertex -9.569403e+00 -2.902847e+00 0.000000e+00
    endloop
  endfacet
  facet normal 9.415441e-01 3.368899e-01 -0.000000e+00
    outer loop
      vertex -9.569403e+00 -2.902847e+00 0.000000e+00
      vertex -9.569403e+00 -2.902847e+00 1.000000e+02
      vertex -9.238795e+00 -3.826834e+00 1.000000e+02
    endloop
  endfacet
  facet normal 9.415441e-01 3.368899e-01 0.000000e+00
    outer loop
      vertex -9.569403e+00 -2.902847e+00 0.000000e+00
      vertex -9.238795e+00 -3.826834e+00 1.000000e+02
      vertex -9.238795e+00 -3.826834e+00 0.000000e+00
    endloop
  endfacet
  facet normal 9.039893e-01 4.275551e-01 -0.000000e+00
    outer loop
      vertex -9.238795e+00 -3.826834e+00 0.000000e+00
      vertex -9.238795e+00 -3.826834e+00 1.000000e+02
      vertex -8.819213e+00 -4.713967e+00 1.000000e+02
    endloop
  endfacet
  facet normal 9.039893e-01 4.275551e-01 0.000000e+00
    outer loop
      vertex -9.238795e+00 -3.826834e+00 0.000000e+00
      vertex -8.819213e+00 -4.713967e+00 1.000000e+02
      vertex -8.819213e+00 -4.713967e+00 0.000000e+00
    endloop
  endfacet
  facet normal 8.577286e-01 5.141027e-01 -0.000000e+00
    outer loop
      vertex -8.819213e+00 -4.713967e+00 0.000000e+00
      vertex -8.819213e+00 -4.713967e+00 1.000000e+02
      vertex -8.314696e+00 -5.555702e+00 1.000000e+02
    endloop
  endfacet
  facet normal 8.577286e-01 5.141027e-01 0.000000e+00
    outer loop
      vertex -8.819213e+00 -4.713967e+00 0.000000e+00
      vertex -8.314696e+00 -5.555702e+00 1.000000e+02
      vertex -8.314696e+00 -5.555702e+00 0.000000e+00
    endloop
  endfacet
  facet normal 8.032075e-01 5.956993e-01 -0.000000e+00
    outer loop
      vertex -8.314696e+00 -5.555702e+00 0.000000e+00
      vertex -8.314696e+00 -5.555702e+00 1.000000e+02
      vertex -7.730105e+00 -6.343933e+00 1.000000e+02
    endloop
  endfacet
  facet normal 8.032075e-01 5.956993e-01 0.000000e+00
    outer loop
      vertex -8.314696e+00 -5.555702e+00 0.000000e+00
      vertex -7.730105e+00 -6.343933e+00 1.000000e+02
      vertex -7.730105e+00 -6.343933e+00 0.000000e+00
    endloop
  endfacet
  facet normal 7.409511e-01 6.715590e-01 -0.000000e+00
    outer loop
      vertex -7.730105e+00 -6.343933e+00 0.000000e+00
      vertex -7.730105e+00 -6.343933e+00 1.000000e+02
      vertex -7.071068e+00 -7.071068e+00 1.000000e+02
    endloop
  endfacet
  facet normal 7.409511e-01 6.715590e-01 0.000000e+00
    outer loop
      vertex -7.730105e+00 -6.343933e+00 0.000000e+00
      vertex -7.071068e+00 -7.071068e+00 1.000000e+02
      vertex -7.071068e+00 -7.071068e+00 0.000000e+00
    endloop
  endfacet
  facet normal 6.715590e-01 7.409511e-01 -0.000000e+00
    outer loop
      vertex -7.071068e+00 -7.071068e+00 0.000000e+00
      vertex -7.071068e+00 -7.071068e+00 1.000000e+02
      vertex -6.343933e+00 -7.730105e+00 1.000000e+02
    endloop
  endfacet
  facet normal 6.715590e-01 7.409511e-01 0.000000e+00
    outer loop
      vertex -7.071068e+00 -7.071068e+00 0.000000e+00
      vertex -6.343933e+00 -7.730105e+00 1.000000e+02
      vertex -6.343933e+00 -7.730105e+00 0.000000e+00
    endloop
  endfacet
  facet normal 5.956993e-01 8.032075e-01 -0.000000e+00
    outer loop
      vertex -6.343933e+00 -7.730105e+00 0.000000e+00
      vertex -6.343933e+00 -7.730105e+00 1.000000e+02
      vertex -5.555702e+00 -8.314696e+00 1.000000e+02
    endloop
  endfacet
  facet normal 5.956993e-01 8.032075e-01 0.000000e+00
    outer loop
      vertex -6.343933e+00 -7.730105e+00 0.000000e+00
      vertex -5.555702e+00 -8.314696e+00 1.000000e+02
      vertex -5.555702e+00 -8.314696e+00 0.000000e+00
    endloop
  endfacet
  facet normal 5.141027e-01 8.577286e-01 -0.000000e+00
    outer loop
      vertex -5.555702e+00 -8.314696e+00 0.000000e+00
      vertex -5.555702e+00 -8.314696e+00 1.000000e+02
      vertex -4.713967e+00 -8.819213e+00 1.000000e+02
    endloop
  endfacet
  facet normal 5.141027e-01 8.577286e-01 0.000000e+00
    outer loop
      vertex -5.555702e+00 -8.314696e+00 0.000000e+00
      vertex -4.713967e+00 -8.819213e+00 1.000000e+02
      vertex -4.713967e+00 -8.819213e+00 0.000000e+00
    endloop
  endfacet
  facet normal 4.275551e-01 9.039893e-01 -0.000000e+00
    outer loop
      vertex -4.713967e+00 -8.819213e+00 0.000000e+00
      vertex -4.713967e+00 -8.819213e+00 1.000000e+02
      vertex -3.826834e+00 -9.238795e+00 1.000000e+02
    endloop
  endfacet
  facet normal 4.275551e-01 9.039893e-01 0.000000e+00
    outer loop
      vertex -4.713967e+00 -8.819213e+00 0.000000e+00
      vertex -3.826834e+00 -9.238795e+00 1.000000e+02
      vertex -3.826834e+00 -9.238795e+00 0.000000e+00
    endloop
  endfacet
  facet normal 3.368899e-01 9.415441e-01 -0.000000e+00
    outer loop
      vertex -3.826834e+00 -9.238795e+00 0.000000e+00
      vertex -3.826834e+00 -9.238795e+00 1.000000e+02
      vertex -2.902847e+00 -9.569403e+00 1.000000e+02
    endloop
  endfacet
  facet normal 3.368899e-01 9.415441e-01 0.000000e+00
    outer loop
      vertex -3.826834e+00 -9.238795e+00 0.000000e+00
      vertex -2.902847e+00 -9.569403e+00 1.000000e+02
      vertex -2.902847e+00 -9.569403e+00 0.000000e+00
    endloop
  endfacet
  facet normal 2.429802e-01 9.700313e-01 -0.000000e+00
    outer loop
      vertex -2.902847e+00 -9.569403e+00 0.000000e+00
      vertex -2.902847e+00 -9.569403e+00 1.000000e+02
      vertex -1.950903e+00 -9.807853e+00 1.000000e+02
    endloop
  endfacet
  facet normal 2.429802e-01 9.700313e-01 0.000000e+00
    outer loop
      vertex -2.902847e+00 -9.569403e+00 0.000000e+00
      vertex -1.950903e+00 -9.807853e+00 1.000000e+02
      vertex -1.950903e+00 -9.807853e+00 0.000000e+00
    endloop
  endfacet
  facet normal 1.467305e-01 9.891765e-01 -0.000000e+00
    outer loop
      vertex -1.950903e+00 -9.807853e+00 0.000000e+00
      vertex -1.950903e+00 -9.807853e+00 1.000000e+02
      vertex -9.801714e-01 -9.951847e+00 1.000000e+02
    endloop
  endfacet
  facet normal 1.467305e-01 9.891765e-01 0.000000e+00
    outer loop
      vertex -1.950903e+00 -9.807853e+00 0.000000e+00
      vertex -9.801714e-01 -9.951847e+00 1.000000e+02
      vertex -9.801714e-01 -9.951847e+00 0.000000e+00
    endloop
  endfacet
  facet normal 4.906767e-02 9.987955e-01 -0.000000e+00
    outer loop
      vertex -9.801714e-01 -9.951847e+00 0.000000e+00
      vertex -9.801714e-01 -9.951847e+00 1.000000e+02
      vertex -1.836970e-15 -1.000000e+01 1.000000e+02
    endloop
  endfacet
  facet normal 4.906767e-02 9.987955e-01 0.000000e+00
    outer loop
      vertex -9.801714e-01 -9.951847e+00 0.000000e+00
      vertex -1.836970e-15 -1.000000e+01 1.000000e+02
      vertex -1.836970e-15 -1.000000e+01 0.000000e+00
    endloop
  endfacet
  facet normal -4.906767e-02 9.987955e-01 0.000000e+00
    outer loop
      vertex -1.836970e-15 -1.000000e+01 0.000000e+00
      vertex -1.836970e-15 -1.000000e+01 1.000000e+02
      vertex 9.801714e-01 -9.951847e+00 1.000000e+02
    endloop
  endfacet
  facet normal -4.906767e-02 9.987955e-01 0.000000e+00
    outer loop
      vertex -1.836970e-15 -1.000000e+01 0.000000e+00
      vertex 9.801714e-01 -9.951847e+00 1.000000e+02
      vertex 9.801714e-01 -9.951847e+00 0.000000e+00
    endloop
  endfacet
  facet normal -1.467305e-01 9.891765e-01 0.000000e+00
    outer loop
      vertex 9.801714e-01 -9.951847e+00 0.000000e+00
      vertex 9.801714e-01 -9.951847e+00 1.000000e+02
      vertex 1.950903e+00 -9.807853e+00 1.000000e+02
    endloop
  endfacet
  facet normal -1.467305e-01 9.891765e-01 0.000000e+00
    outer loop
      vertex 9.801714e-01 -9.951847e+00 0.000000e+00
      vertex 1.950903e+00 -9.807853e+00 1.000000e+02
      vertex 1.950903e+00 -9.807853e+00 0.000000e+00
    endloop
  endfacet
  facet normal -2.429802e-01 9.700313e-01 0.000000e+00
    outer loop
      vertex 1.950903e+00 -9.807853e+00 0.000000e+00
      vertex 1.950903e+00 -9.807853e+00 1.000000e+02
      vertex 2.902847e+00 -9.569403e+00 1.000000e+02
    endloop
  endfacet
  facet normal -2.429802e-01 9.700313e-01 0.000000e+00
    outer loop
      vertex 1.950903e+00 -9.807853e+00 0.000000e+00
      vertex 2.902847e+00 -9.569403e+00 1.000000e+02
      vertex 2.902847e+00 -9.569403e+00 0.000000e+00
    endloop
  endfacet
  facet normal -3.368899e-01 9.415441e-01 0.000000e+00
    outer loop
      vertex 2.902847e+00 -9.569403e+00 0.000000e+00
      vertex 2.902847e+00 -9.569403e+00 1.000000e+02
      vertex 3.826834e+00 -9.238795e+00 1.000000e+02
    endloop
  endfacet
  facet normal -3.368899e-01 9.415441e-01 0.000000e+00
    outer loop
      vertex 2.902847e+00 -9.569403e+00 0.000000e+00
      vertex 3.826834e+00 -9.238795e+00 1.000000e+02
      vertex 3.826834e+00 -9.238795e+00 0.000000e+00
    endloop
  endfacet
  facet normal -4.275551e-01 9.039893e-01 0.000000e+00
    outer loop
      vertex 3.826834e+00 -9.238795e+00 0.000000e+00
      vertex 3.826834e+00 -9.238795e+00 1.000000e+02
      vertex 4.713967e+00 -8.819213e+00 1.000000e+02
    endloop
  endfacet
  facet normal -4.275551e-01 9.039893e-01 0.000000e+00
    outer loop
      vertex 3.826834e+00 -9.238795e+00 0.000000e+00
      vertex 4.713967e+00 -8.819213e+00 1.000000e+02
      vertex 4.713967e+00 -8.819213e+00 0.000000e+00
    endloop
  endfacet
  facet normal -5.141027e-01 8.577286e-01 0.000000e+00
    outer loop
      vertex 4.713967e+00 -8.819213e+00 0.000000e+00
      vertex 4.713967e+00 -8.819213e+00 1.000000e+02
      vertex 5.555702e+00 -8.314696e+00 1.000000e+02
    endloop
  endfacet
  facet normal -5.141027e-01 8.577286e-01 0.000000e+00
    outer loop
      vertex 4.713967e+00 -8.819213e+00 0.000000e+00
      vertex 5.555702e+00 -8.314696e+00 1.000000e+02
      vertex 5.555702e+00 -8.314696e+00 0.000000e+00
    endloop
  endfacet
  facet normal -5.956993e-01 8.032075e-01 0.000000e+00
    outer loop
      vertex 5.555702e+00 -8.314696e+00 0.000000e+00
      vertex 5.555702e+00 -8.314696e+00 1.000000e+02
      vertex 6.343933e+00 -7.730105e+00 1.000000e+02
    endloop
  endfacet
  facet normal -5.956993e-01 8.032075e-01 0.000000e+00
    outer loop
      vertex 5.555702e+00 -8.314696e+00 0.000000e+00
      vertex 6.343933e+00 -7.730105e+00 1.000000e+02
      vertex 6.343933e+00 -7.730105e+00 0.000000e+00
    endloop
  endfacet
  facet normal -6.715590e-01 7.409511e-01 0.000000e+00
    outer loop
      vertex 6.343933e+00 -7.730105e+00 0.000000e+00
      vertex 6.343933e+00 -7.730105e+00 1.000000e+02
      vertex 7.071068e+00 -7.071068e+00 1.000000e+02
    endloop
  endfacet
  facet normal -6.715590e-01 7.409511e-01 0.000000e+00
    outer loop
      vertex 6.343933e+00 -7.730105e+00 0.000000e+00
      vertex 7.071068e+00 -7.071068e+00 1.000000e+02
      vertex 7.071068e+00 -7.071068e+00 0.000000e+00
    endloop
  endfacet
  facet normal -7.409511e-01 6.715590e-01 0.000000e+00
    outer loop
      vertex 7.071068e+00 -7.071068e+00 0.000000e+00
      vertex 7.071068e+00 -7.071068e+00 1.000000e+02
      vertex 7.730105e+00 -6.343933e+00 1.000000e+02
    endloop
  endfacet
  facet normal -7.409511e-01 6.715590e-01 0.000000e+00
    outer loop
      vertex 7.071068e+00 -7.071068e+00 0.000000e+00
      vertex 7.730105e+00 -6.343933e+00 1.000000e+02
      vertex 7.730105e+00 -6.343933e+00 0.000000e+00
    endloop
  endfacet
  facet normal -8.032075e-01 5.956993e-01 0.000000e+00
    outer loop
      vertex 7.730105e+00 -6.343933e+00 0.000000e+00
      vertex 7.730105e+00 -6.343933e+00 1.000000e+02
      vertex 8.314696e+00 -5.555702e+00 1.000000e+02
    endloop
  endfacet
  facet normal -8.032075e-01 5.956993e-01 0.000000e+00
    outer loop
      vertex 7.730105e+00 -6.343933e+00 0.000000e+00
      vertex 8.314696e+00 -5.555702e+00 1.000000e+02
      vertex 8.314696e+00 -5.555702e+00 0.000000e+00
    endloop
  endfacet
  facet normal -8.577286e-01 5.141027e-01 0.000000e+00
    outer loop
      vertex 8.314696e+00 -5.555702e+00 0.000000e+00
      vertex 8.314696e+00 -5.555702e+00 1.000000e+02
      vertex 8.819213e+00 -4.713967e+00 1.000000e+02
    endloop
  endfacet
  facet normal -8.577286e-01 5.141027e-01 0.000000e+00
    outer loop
      vertex 8.314696e+00 -5.555702e+00 0.000000e+00
      vertex 8.819213e+00 -4.713967e+00 1.000000e+02
      vertex 8.819213e+00 -4.713967e+00 0.000000e+00
    endloop
  endfacet
  facet normal -9.039893e-01 4.275551e-01 0.000000e+00
    outer loop
      vertex 8.819213e+00 -4.713967e+00 0.000000e+00
      vertex 8.819213e+00 -4.713967e+00 1.000000e+02
      vertex 9.238795e+00 -3.826834e+00 1.000000e+02
    endloop
  endfacet
  facet normal -9.039893e-01 4.275551e-01 0.000000e+00
    outer loop
      vertex 8.819213e+00 -4.713967e+00 0.000000e+00
      vertex 9.238795e+00 -3.826834e+00 1.000000e+02
      vertex 9.238795e+00 -3.826834e+00 0.000000e+00
    endloop
  endfacet
  facet normal -9.415441e-01 3.368899e-01 0.000000e+00
    outer loop
      vertex 9.238795e+00 -3.826834e+00 0.000000e+00
      vertex 9.238795e+00 -3.826834e+00 1.000000e+02
      vertex 9.569403e+00 -2.902847e+00 1.000000e+02
    endloop
  endfacet
  facet normal -9.415441e-01 3.368899e-01 0.000000e+00
    outer loop
      vertex 9.238795e+00 -3.826834e+00 0.000000e+00
      vertex 9.569403e+00 -2.902847e+00 1.000000e+02
      vertex 9.569403e+00 -2.902847e+00 0.000000e+00
    endloop
  endfacet
  facet normal -9.700313e-01 2.429802e-01 0.000000e+00
    outer loop
      vertex 9.569403e+00 -2.902847e+00 0.000000e+00
      vertex 9.569403e+00 -2.902847e+00 1.000000e+02
      vertex 9.807853e+00 -1.950903e+00 1.000000e+02
    endloop
  endfacet
  facet normal -9.700313e-01 2.429802e-01 0.000000e+00
    outer loop
      vertex 9.569403e+00 -2.902847e+00 0.000000e+00
      vertex 9.807853e+00 -1.950903e+00 1.000000e+02
      vertex 9.807853e+00 -1.950903e+00 0.000000e+00
    endloop
  endfacet
  facet normal -9.891765e-01 1.467305e-01 0.000000e+00
    outer loop
      vertex 9.807853e+00 -1.950903e+00 0.000000e+00
      vertex 9.807853e+00 -1.950903e+00 1.000000e+02
      vertex 9.951847e+00 -9.801714e-01 1.000000e+02
    endloop
  endfacet
  facet normal -9.891765e-01 1.467305e-01 0.000000e+00
    outer loop
      vertex 9.807853e+00 -1.950903e+00 0.000000e+00
      vertex 9.951847e+00 -9.801714e-01 1.000000e+02
      vertex 9.951847e+00 -9.801714e-01 0.000000e+00
    endloop
  endfacet
  facet normal -9.987955e-01 4.906767e-02 0.000000e+00
    outer loop
      vertex 9.951847e+00 -9.801714e-01 0.000000e+00
      vertex 9.951847e+00 -9.801714e-01 1.000000e+02
      vertex 1.000000e+01 -2.449294e-15 1.000000e+02
    endloop
  endfacet
  facet normal -9.987955e-01 4.906767e-02 0.000000e+00
    outer loop
      vertex 9.951847e+00 -9.801714e-01 0.000000e+00
      vertex 1.000000e+01 -2.449294e-15 1.000000e+02
      vertex 1.000000e+01 -2.449294e-15 0.000000e+00
    endloop
  endfacet
  facet normal 0.000000e+00 0.000000e+00 -1.000000e+00
    outer loop
      vertex 0.000000e+00 0.000000e+00 0.000000e+00
      vertex 9.951847e+00 9.801714e-01 0.000000e+00
      vertex 1.000000e+01 0.000000e+00 0.000000e+00
    endloop
  endfacet
  facet normal 0.000000e+00 0.000000e+00 -1.000000e+00
    outer loop
      vertex 0.000000e+00 0.000000e+00 0.000000e+00
      vertex 9.807853e+00 1.950903e+00 0.000000e+00
      vertex 9.951847e+00 9.801714e-01 0.000000e+00
    endloop
  endfacet
  facet normal 0.000000e+00 0.000000e+00 -1.000000e+00
    outer loop
      vertex 0.000000e+00 0.000000e+00 0.000000e+00
      vertex 9.569403e+00 2.902847e+00 0.000000e+00
      vertex 9.807853e+00 1.950903e+00 0.000000e+00
    endloop
  endfacet
  facet normal 0.000000e+00 0.000000e+00 -1.000000e+00
    outer loop
      vertex 0.000000e+00 0.000000e+00 0.000000e+00
      vertex 9.238795e+00 3.826834e+00 0.000000e+00
      vertex 9.569403e+00 2.902847e+00 0.000000e+00
    endloop
  endfacet
  facet normal 0.000000e+00 0.000000e+00 -1.000000e+00
    outer loop
      vertex 0.000000e+00 0.000000e+00 0.000000e+00
      vertex 8.819213e+00 4.713967e+00 0.000000e+00
      vertex 9.238795e+00 3.826834e+00 0.000000e+00
    endloop
  endfacet
  facet normal 0.000000e+00 0.000000e+00 -1.000000e+00
    outer loop
      vertex 0.000000e+00 0.000000e+00 0.000000e+00
      vertex 8.314696e+00 5.555702e+00 0.000000e+00
      vertex 8.819213e+00 4.713967e+00 0.000000e+00
    endloop
  endfacet
  facet normal 0.000000e+00 0.000000e+00 -1.000000e+00
    outer loop
      vertex 0.000000e+00 0.000000e+00 0.000000e+00
      vertex 7.730105e+00 6.343933e+00 0.000000e+00
      vertex 8.314696e+00 5.555702e+00 0.000000e+00
    endloop
  endfacet
  facet normal 0.000000e+00 0.000000e+00 -1.000000e+00
    outer loop
      vertex 0.000000e+00 0.000000e+00 0.000000e+00
      vertex 7.071068e+00 7.071068e+00 0.000000e+00
      vertex 7.730105e+00 6.343933e+00 0.000000e+00
    endloop
  endfacet
  facet normal 0.000000e+00 0.000000e+00 -1.000000e+00
    outer loop
      vertex 0.000000e+00 0.000000e+00 0.000000e+00
      vertex 6.343933e+00 7.730105e+00 0.000000e+00
      vertex 7.071068e+00 7.071068e+00 0.000000e+00
    endloop
  endfacet
  facet normal 0.000000e+00 0.000000e+00 -1.000000e+00
    outer loop
      vertex 0.000000e+00 0.000000e+00 0.000000e+00
      vertex 5.555702e+00 8.314696e+00 0.000000e+00
      vertex 6.343933e+00 7.730105e+00 0.000000e+00
    endloop
  endfacet
  facet normal 0.000000e+00 0.000000e+00 -1.000000e+00
    outer loop
      vertex 0.000000e+00 0.000000e+00 0.000000e+00
      vertex 4.713967e+00 8.819213e+00 0.000000e+00
      vertex 5.555702e+00 8.314696e+00 0.000000e+00
    endloop
  endfacet
  facet normal 0.000000e+00 0.000000e+00 -1.000000e+00
    outer loop
      vertex 0.000000e+00 0.000000e+00 0.000000e+00
      vertex 3.826834e+00 9.238795e+00 0.000000e+00
      vertex 4.713967e+00 8.819213e+00 0.000000e+00
    endloop
  endfacet
  facet normal 0.000000e+00 0.000000e+00 -1.000000e+00
    outer loop
      vertex 0.000000e+00 0.000000e+00 0.000000e+00
      vertex 2.902847e+00 9.569403e+00 0.000000e+00
      vertex 3.826834e+00 9.238795e+00 0.000000e+00
    endloop
  endfacet
  facet normal 0.000000e+00 0.000000e+00 -1.000000e+00
    outer loop
      vertex 0.000000e+00 0.000000e+00 0.000000e+00
      vertex 1.950903e+00 9.807853e+00 0.000000e+00
      vertex 2.902847e+00 9.569403e+00 0.000000e+00
    endloop
  endfacet
  facet normal 0.000000e+00 0.000000e+00 -1.000000e+00
    outer loop
      vertex 0.000000e+00 0.000000e+00 0.000000e+00
      vertex 9.801714e-01 9.951847e+00 0.000000e+00
      vertex 1.950903e+00 9.807853e+00 0.000000e+00
    endloop
  endfacet
  facet normal 0.000000e+00 0.000000e+00 -1.000000e+00
    outer loop
      vertex 0.000000e+00 0.000000e+00 0.000000e+00
      vertex 6.123234e-16 1.000000e+01 0.000000e+00
      vertex 9.801714e-01 9.951847e+00 0.000000e+00
    endloop
  endfacet
  facet normal 0.000000e+00 0.000000e+00 -1.000000e+00
    outer loop
      vertex 0.000000e+00 0.000000e+00 0.000000e+00
      vertex -9.801714e-01 9.951847e+00 0.000000e+00
      vertex 6.123234e-16 1.000000e+01 0.000000e+00
    endloop
  endfacet
  facet normal 0.000000e+00 0.000000e+00 -1.000000e+00
    outer loop
      vertex 0.000000e+00 0.000000e+00 0.000000e+00
      vertex -1.950903e+00 9.807853e+00 0.000000e+00
      vertex -9.801714e-01 9.951847e+00 0.000000e+00
    endloop
  endfacet
  facet normal 0.000000e+00 0.000000e+00 -1.000000e+00
    outer loop
      vertex 0.000000e+00 0.000000e+00 0.000000e+00
      vertex -2.902847e+00 9.569403e+00 0.000000e+00
      vertex -1.950903e+00 9.807853e+00 0.000000e+00
    endloop
  endfacet
  facet normal 0.000000e+00 0.000000e+00 -1.000000e+00
    outer loop
      vertex 0.000000e+00 0.000000e+00 0.000000e+00
      vertex -3.826834e+00 9.238795e+00 0.000000e+00
      vertex -2.902847e+00 9.569403e+00 0.000000e+00
    endloop
  endfacet
  facet normal 0.000000e+00 0.000000e+00 -1.000000e+00
    outer loop
      vertex 0.000000e+00 0.000000e+00 0.000000e+00
      vertex -4.713967e+00 8.819213e+00 0.000000e+00
      vertex -3.826834e+00 9.238795e+00 0.000000e+00
    endloop
  endfacet
  facet normal 0.000000e+00 0.000000e+00 -1.000000e+00
    outer loop
      vertex 0.000000e+00 0.000000e+00 0.000000e+00
      vertex -5.555702e+00 8.314696e+00 0.000000e+00
      vertex -4.713967e+00 8.819213e+00 0.000000e+00
    endloop
  endfacet
  facet normal 0.000000e+00 0.000000e+00 -1.000000e+00
    outer loop
      vertex 0.000000e+00 0.000000e+00 0.000000e+00
      vertex -6.343933e+00 7.730105e+00 0.000000e+00
      vertex -5.555702e+00 8.314696e+00 0.000000e+00
    endloop
  endfacet
  facet normal 0.000000e+00 0.000000e+00 -1.000000e+00
    outer loop
      vertex 0.000000e+00 0.000000e+00 0.000000e+00
      vertex -7.071068e+00 7.071068e+00 0.000000e+00
      vertex -6.343933e+00 7.730105e+00 0.000000e+00
    endloop
  endfacet
  facet normal 0.000000e+00 0.000000e+00 -1.000000e+00
    outer loop
      vertex 0.000000e+00 0.000000e+00 0.000000e+00
      vertex -7.730105e+00 6.343933e+00 0.000000e+00
      vertex -7.071068e+00 7.071068e+00 0.000000e+00
    endloop
  endfacet
  facet normal 0.000000e+00 0.000000e+00 -1.000000e+00
    outer loop
      vertex 0.000000e+00 0.000000e+00 0.000000e+00
      vertex -8.314696e+00 5.555702e+00 0.000000e+00
      vertex -7.730105e+00 6.343933e+00 0.000000e+00
    endloop
  endfacet
  facet normal 0.000000e+00 0.000000e+00 -1.000000e+00
    outer loop
      vertex 0.000000e+00 0.000000e+00 0.000000e+00
      vertex -8.819213e+00 4.713967e+00 0.000000e+00
      vertex -8.314696e+00 5.555702e+00 0.000000e+00
    endloop
  endfacet
  facet normal 0.000000e+00 0.000000e+00 -1.000000e+00
    outer loop
      vertex 0.000000e+00 0.000000e+00 0.000000e+00
      vertex -9.238795e+00 3.826834e+00 0.000000e+00
      vertex -8.819213e+00 4.713967e+00 0.000000e+00
    endloop
  endfacet
  facet normal 0.000000e+00 0.000000e+00 -1.000000e+00
    outer loop
      vertex 0.000000e+00 0.000000e+00 0.000000e+00
      vertex -9.569403e+00 2.902847e+00 0.000000e+00
      vertex -9.238795e+00 3.826834e+00 0.000000e+00
    endloop
  endfacet
  facet normal 0.000000e+00 0.000000e+00 -1.000000e+00
    outer loop
      vertex 0.000000e+00 0.000000e+00 0.000000e+00
      vertex -9.807853e+00 1.950903e+00 0.000000e+00
      vertex -9.569403e+00 2.902847e+00 0.000000e+00
    endloop
  endfacet
  facet normal 0.000000e+00 0.000000e+00 -1.000000e+00
    outer loop
      vertex 0.000000e+00 0.000000e+00 0.000000e+00
      vertex -9.951847e+00 9.801714e-01 0.000000e+00
      vertex -9.807853e+00 1.950903e+00 0.000000e+00
    endloop
  endfacet
  facet normal 0.000000e+00 0.000000e+00 -1.000000e+00
    outer loop
      vertex 0.000000e+00 0.000000e+00 0.000000e+00
      vertex -1.000000e+01 1.224647e-15 0.000000e+00
      vertex -9.951847e+00 9.801714e-01 0.000000e+00
    endloop
  endfacet
  facet normal -0.000000e+00 0.000000e+00 -1.000000e+00
    outer loop
      vertex 0.000000e+00 0.000000e+00 0.000000e+00
      vertex -9.951847e+00 -9.801714e-01 0.000000e+00
      vertex -1.000000e+01 1.224647e-15 0.000000e+00
    endloop
  endfacet
  facet normal 0.000000e+00 0.000000e+00 -1.000000e+00
    outer loop
      vertex 0.000000e+00 0.000000e+00 0.000000e+00
      vertex -9.807853e+00 -1.950903e+00 0.000000e+00
      vertex -9.951847e+00 -9.801714e-01 0.000000e+00
    endloop
  endfacet
  facet normal 0.000000e+00 0.000000e+00 -1.000000e+00
    outer loop
      vertex 0.000000e+00 0.000000e+00 0.000000e+00
      vertex -9.569403e+00 -2.902847e+00 0.000000e+00
      vertex -9.807853e+00 -1.950903e+00 0.000000e+00
    endloop
  endfacet
  facet normal 0.000000e+00 0.000000e+00 -1.000000e+00
    outer loop
      vertex 0.000000e+00 0.000000e+00 0.000000e+00
      vertex -9.238795e+00 -3.826834e+00 0.000000e+00
      vertex -9.569403e+00 -2.902847e+00 0.000000e+00
    endloop
  endfacet
  facet normal 0.000000e+00 0.000000e+00 -1.000000e+00
    outer loop
      vertex 0.000000e+00 0.000000e+00 0.000000e+00
      vertex -8.819213e+00 -4.713967e+00 0.000000e+00
      vertex -9.238795e+00 -3.826834e+00 0.000000e+00
    endloop
  endfacet
  facet normal 0.000000e+00 0.000000e+00 -1.000000e+00
    outer loop
      vertex 0.000000e+00 0.000000e+00 0.000000e+00
      vertex -8.314696e+00 -5.555702e+00 0.000000e+00
      vertex -8.819213e+00 -4.713967e+00 0.000000e+00
    endloop
  endfacet
  facet normal 0.000000e+00 0.000000e+00 -1.000000e+00
    outer loop
      vertex 0.000000e+00 0.000000e+00 0.000000e+00
      vertex -7.730105e+00 -6.343933e+00 0.000000e+00
      vertex -8.314696e+00 -5.555702e+00 0.000000e+00
    endloop
  endfacet
  facet normal 0.000000e+00 0.000000e+00 -1.000000e+00
    outer loop
      vertex 0.000000e+00 0.000000e+00 0.000000e+00
      vertex -7.071068e+00 -7.071068e+00 0.000000e+00
      vertex -7.730105e+00 -6.343933e+00 0.000000e+00
    endloop
  endfacet
  facet normal 0.000000e+00 0.000000e+00 -1.000000e+00
    outer loop
      vertex 0.000000e+00 0.000000e+00 0.000000e+00
      vertex -6.343933e+00 -7.730105e+00 0.000000e+00
      vertex -7.071068e+00 -7.071068e+00 0.000000e+00
    endloop
  endfacet
  facet normal 0.000000e+00 0.000000e+00 -1.000000e+00
    outer loop
      vertex 0.000000e+00 0.000000e+00 0.000000e+00
      vertex -5.555702e+00 -8.314696e+00 0.000000e+00
      vertex -6.343933e+00 -7.730105e+00 0.000000e+00
    endloop
  endfacet
  facet normal 0.000000e+00 0.000000e+00 -1.000000e+00
    outer loop
      vertex 0.000000e+00 0.000000e+00 0.000000e+00
      vertex -4.713967e+00 -8.819213e+00 0.000000e+00
      vertex -5.555702e+00 -8.314696e+00 0.000000e+00
    endloop
  endfacet
  facet normal 0.000000e+00 0.000000e+00 -1.000000e+00
    outer loop
      vertex 0.000000e+00 0.000000e+00 0.000000e+00
      vertex -3.826834e+00 -9.238795e+00 0.000000e+00
      vertex -4.713967e+00 -8.819213e+00 0.000000e+00
    endloop
  endfacet
  facet normal 0.000000e+00 0.000000e+00 -1.000000e+00
    outer loop
      vertex 0.000000e+00 0.000000e+00 0.000000e+00
      vertex -2.902847e+00 -9.569403e+00 0.000000e+00
      vertex -3.826834e+00 -9.238795e+00 0.000000e+00
    endloop
  endfacet
  facet normal 0.000000e+00 0.000000e+00 -1.000000e+00
    outer loop
      vertex 0.000000e+00 0.000000e+00 0.000000e+00
      vertex -1.950903e+00 -9.807853e+00 0.000000e+00
      vertex -2.902847e+00 -9.569403e+00 0.000000e+00
    endloop
  endfacet
  facet normal 0.000000e+00 0.000000e+00 -1.000000e+00
    outer loop
      vertex 0.000000e+00 0.000000e+00 0.000000e+00
      vertex -9.801714e-01 -9.951847e+00 0.000000e+00
      vertex -1.950903e+00 -9.807853e+00 0.000000e+00
    endloop
  endfacet
  facet normal 0.000000e+00 0.000000e+00 -1.000000e+00
    outer loop
      vertex 0.000000e+00 0.000000e+00 0.000000e+00
      vertex -1.836970e-15 -1.000000e+01 0.000000e+00
      vertex -9.801714e-01 -9.951847e+00 0.000000e+00
    endloop
  endfacet
  facet normal 0.000000e+00 -0.000000e+00 -1.000000e+00
    outer loop
      vertex 0.000000e+00 0.000000e+00 0.000000e+00
      vertex 9.801714e-01 -9.951847e+00 0.000000e+00
      vertex -1.836970e-15 -1.000000e+01 0.000000e+00
    endloop
  endfacet
  facet normal 0.000000e+00 0.000000e+00 -1.000000e+00
    outer loop
      vertex 0.000000e+00 0.000000e+00 0.000000e+00
      vertex 1.950903e+00 -9.807853e+00 0.000000e+00
      vertex 9.801714e-01 -9.951847e+00 0.000000e+00
    endloop
  endfacet
  facet normal 0.000000e+00 0.000000e+00 -1.000000e+00
    outer loop
      vertex 0.000000e+00 0.000000e+00 0.000000e+00
      vertex 2.902847e+00 -9.569403e+00 0.000000e+00
      vertex 1.950903e+00 -9.807853e+00 0.000000e+00
    endloop
  endfacet
  facet normal 0.000000e+00 0.000000e+00 -1.000000e+00
    outer loop
      vertex 0.000000e+00 0.000000e+00 0.000000e+00
      vertex 3.826834e+00 -9.238795e+00 0.000000e+00
      vertex 2.902847e+00 -9.569403e+00 0.000000e+00
    endloop
  endfacet
  facet normal 0.000000e+00 0.000000e+00 -1.000000e+00
    outer loop
      vertex 0.000000e+00 0.000000e+00 0.000000e+00
      vertex 4.713967e+00 -8.819213e+00 0.000000e+00
      vertex 3.826834e+00 -9.238795e+00 0.000000e+00
    endloop
  endfacet
  facet normal 0.000000e+00 0.000000e+00 -1.000000e+00
    outer loop
      vertex 0.000000e+00 0.000000e+00 0.000000e+00
      vertex 5.555702e+00 -8.314696e+00 0.000000e+00
      vertex 4.713967e+00 -8.819213e+00 0.000000e+00
    endloop
  endfacet
  facet normal 0.000000e+00 0.000000e+00 -1.000000e+00
    outer loop
      vertex 0.000000e+00 0.000000e+00 0.000000e+00
      vertex 6.343933e+00 -7.730105e+00 0.000000e+00
      vertex 5.555702e+00 -8.314696e+00 0.000000e+00
    endloop
  endfacet
  facet normal 0.000000e+00 0.000000e+00 -1.000000e+00
    outer loop
      vertex 0.000000e+00 0.000000e+00 0.000000e+00
      vertex 7.071068e+00 -7.071068e+00 0.000000e+00
      vertex 6.343933e+00 -7.730105e+00 0.000000e+00
    endloop
  endfacet
  facet normal 0.000000e+00 0.000000e+00 -1.000000e+00
    outer loop
      vertex 0.000000e+00 0.000000e+00 0.000000e+00
      vertex 7.730105e+00 -6.343933e+00 0.000000e+00
      vertex 7.071068e+00 -7.071068e+00 0.000000e+00
    endloop
  endfacet
  facet normal 0.000000e+00 0.000000e+00 -1.000000e+00
    outer loop
      vertex 0.000000e+00 0.000000e+00 0.000000e+00
      vertex 8.314696e+00 -5.555702e+00 0.000000e+00
      vertex 7.730105e+00 -6.343933e+00 0.000000e+00
    endloop
  endfacet
  facet normal 0.000000e+00 0.000000e+00 -1.000000e+00
    outer loop
      vertex 0.000000e+00 0.000000e+00 0.000000e+00
      vertex 8.819213e+00 -4.713967e+00 0.000000e+00
      vertex 8.314696e+00 -5.555702e+00 0.000000e+00
    endloop
  endfacet
  facet normal 0.000000e+00 0.000000e+00 -1.000000e+00
    outer loop
      vertex 0.000000e+00 0.000000e+00 0.000000e+00
      vertex 9.238795e+00 -3.826834e+00 0.000000e+00
      vertex 8.819213e+00 -4.713967e+00 0.000000e+00
    endloop
  endfacet
  facet normal 0.000000e+00 0.000000e+00 -1.000000e+00
    outer loop
      vertex 0.000000e+00 0.000000e+00 0.000000e+00
      vertex 9.569403e+00 -2.902847e+00 0.000000e+00
      vertex 9.238795e+00 -3.826834e+00 0.000000e+00
    endloop
  endfacet
  facet normal 0.000000e+00 0.000000e+00 -1.000000e+00
    outer loop
      vertex 0.000000e+00 0.000000e+00 0.000000e+00
      vertex 9.807853e+00 -1.950903e+00 0.000000e+00
      vertex 9.569403e+00 -2.902847e+00 0.000000e+00
    endloop
  endfacet
  facet normal 0.000000e+00 0.000000e+00 -1.000000e+00
    outer loop
      vertex 0.000000e+00 0.000000e+00 0.000000e+00
      vertex 9.951847e+00 -9.801714e-01 0.000000e+00
      vertex 9.807853e+00 -1.950903e+00 0.000000e+00
    endloop
  endfacet
  facet normal 0.000000e+00 0.000000e+00 -1.000000e+00
    outer loop
      vertex 0.000000e+00 0.000000e+00 0.000000e+00
      vertex 1.000000e+01 -2.449294e-15 0.000000e+00
      vertex 9.951847e+00 -9.801714e-01 0.000000e+00
    endloop
  endfacet
  facet normal 9.794449e-01 4.811704e-02 1.958890e-01
    outer loop
      vertex 1.000000e+01 0.000000e+00 1.000000e+02
      vertex 9.951847e+00 9.801714e-01 1.000000e+02
      vertex 0.000000e+00 0.000000e+00 1.500000e+02
    endloop
  endfacet
  facet normal 9.700123e-01 1.438877e-01 1.958890e-01
    outer loop
      vertex 9.951847e+00 9.801714e-01 1.000000e+02
      vertex 9.807853e+00 1.950903e+00 1.000000e+02
      vertex 0.000000e+00 0.000000e+00 1.500000e+02
    endloop
  endfacet
  facet normal 9.512379e-01 2.382727e-01 1.958890e-01
    outer loop
      vertex 9.807853e+00 1.950903e+00 1.000000e+02
      vertex 9.569403e+00 2.902847e+00 1.000000e+02
      vertex 0.000000e+00 0.000000e+00 1.500000e+02
    endloop
  endfacet
  facet normal 9.233027e-01 3.303630e-01 1.958890e-01
    outer loop
      vertex 9.569403e+00 2.902847e+00 1.000000e+02
      vertex 9.238795e+00 3.826834e+00 1.000000e+02
      vertex 0.000000e+00 0.000000e+00 1.500000e+02
    endloop
  endfacet
  facet normal 8.864755e-01 4.192717e-01 1.958890e-01
    outer loop
      vertex 9.238795e+00 3.826834e+00 1.000000e+02
      vertex 8.819213e+00 4.713967e+00 1.000000e+02
      vertex 0.000000e+00 0.000000e+00 1.500000e+02
    endloop
  endfacet
  facet normal 8.411110e-01 5.041426e-01 1.958890e-01
    outer loop
      vertex 8.819213e+00 4.713967e+00 1.000000e+02
      vertex 8.314696e+00 5.555702e+00 1.000000e+02
      vertex 0.000000e+00 0.000000e+00 1.500000e+02
    endloop
  endfacet
  facet normal 7.876463e-01 5.841583e-01 1.958890e-01
    outer loop
      vertex 8.314696e+00 5.555702e+00 1.000000e+02
      vertex 7.730105e+00 6.343933e+00 1.000000e+02
      vertex 0.000000e+00 0.000000e+00 1.500000e+02
    endloop
  endfacet
  facet normal 7.265960e-01 6.585482e-01 1.958890e-01
    outer loop
      vertex 7.730105e+00 6.343933e+00 1.000000e+02
      vertex 7.071068e+00 7.071068e+00 1.000000e+02
      vertex 0.000000e+00 0.000000e+00 1.500000e+02
    endloop
  endfacet
  facet normal 6.585482e-01 7.265960e-01 1.958890e-01
    outer loop
      vertex 7.071068e+00 7.071068e+00 1.000000e+02
      vertex 6.343933e+00 7.730105e+00 1.000000e+02
      vertex 0.000000e+00 0.000000e+00 1.500000e+02
    endloop
  endfacet
  facet normal 5.841583e-01 7.876463e-01 1.958890e-01
    outer loop
      vertex 6.343933e+00 7.730105e+00 1.000000e+02
      vertex 5.555702e+00 8.314696e+00 1.000000e+02
      vertex 0.000000e+00 0.000000e+00 1.500000e+02
    endloop
  endfacet
  facet normal 5.041426e-01 8.411110e-01 1.958890e-01
    outer loop
      vertex 5.555702e+00 8.314696e+00 1.000000e+02
      vertex 4.713967e+00 8.819213e+00 1.000000e+02
      vertex 0.000000e+00 0.000000e+00 1.500000e+02
    endloop
  endfacet
  facet normal 4.192717e-01 8.864755e-01 1.958890e-01
    outer loop
      vertex 4.713967e+00 8.819213e+00 1.000000e+02
      vertex 3.826834e+00 9.238795e+00 1.000000e+02
      vertex 0.000000e+00 0.000000e+00 1.500000e+02
    endloop
  endfacet
  facet normal 3.303630e-01 9.233027e-01 1.958890e-01
    outer loop
      vertex 3.826834e+00 9.238795e+00 1.000000e+02
      vertex 2.902847e+00 9.569403e+00 1.000000e+02
      vertex 0.000000e+00 0.000000e+00 1.500000e+02
    endloop
  endfacet
  facet normal 2.382727e-01 9.512379e-01 1.958890e-01
    outer loop
      vertex 2.902847e+00 9.569403e+00 1.000000e+02
      vertex 1.950903e+00 9.807853e+00 1.000000e+02
      vertex 0.000000e+00 0.000000e+00 1.500000e+02
    endloop
  endfacet
  facet normal 1.438877e-01 9.700123e-01 1.958890e-01
    outer loop
      vertex 1.950903e+00 9.807853e+00 1.000000e+02
      vertex 9.801714e-01 9.951847e+00 1.000000e+02
      vertex 0.000000e+00 0.000000e+00 1.500000e+02
    endloop
  endfacet
  facet normal 4.811704e-02 9.794449e-01 1.958890e-01
    outer loop
      vertex 9.801714e-01 9.951847e+00 1.000000e+02
      vertex 6.123234e-16 1.000000e+01 1.000000e+02
      vertex 0.000000e+00 0.000000e+00 1.500000e+02
    endloop
  endfacet
  facet normal -4.811704e-02 9.794449e-01 1.958890e-01
    outer loop
      vertex 6.123234e-16 1.000000e+01 1.000000e+02
      vertex -9.801714e-01 9.951847e+00 1.000000e+02
      vertex 0.000000e+00 0.000000e+00 1.500000e+02
    endloop
  endfacet
  facet normal -1.438877e-01 9.700123e-01 1.958890e-01
    outer loop
      vertex -9.801714e-01 9.951847e+00 1.000000e+02
      vertex -1.950903e+00 9.807853e+00 1.000000e+02
      vertex 0.000000e+00 0.000000e+00 1.500000e+02
    endloop
  endfacet
  facet normal -2.382727e-01 9.512379e-01 1.958890e-01
    outer loop
      vertex -1.950903e+00 9.807853e+00 1.000000e+02
      vertex -2.902847e+00 9.569403e+00 1.000000e+02
      vertex 0.000000e+00 0.000000e+00 1.500000e+02
    endloop
  endfacet
  facet normal -3.303630e-01 9.233027e-01 1.958890e-01
    outer loop
      vertex -2.902847e+00 9.569403e+00 1.000000e+02
      vertex -3.826834e+00 9.238795e+00 1.000000e+02
      vertex 0.000000e+00 0.000000e+00 1.500000e+02
    endloop
  endfacet
  facet normal -4.192717e-01 8.864755e-01 1.958890e-01
    outer loop
      vertex -3.826834e+00 9.238795e+00 1.000000e+02
      vertex -4.713967e+00 8.819213e+00 1.000000e+02
      vertex 0.000000e+00 0.000000e+00 1.500000e+02
    endloop
  endfacet
  facet normal -5.041426e-01 8.411110e-01 1.958890e-01
    outer loop
      vertex -4.713967e+00 8.819213e+00 1.000000e+02
      vertex -5.555702e+00 8.314696e+00 1.000000e+02
      vertex 0.000000e+00 0.000000e+00 1.500000e+02
    endloop
  endfacet
  facet normal -5.841583e-01 7.876463e-01 1.958890e-01
    outer loop
      vertex -5.555702e+00 8.314696e+00 1.000000e+02
      vertex -6.343933e+00 7.730105e+00 1.000000e+02
      vertex 0.000000e+00 0.000000e+00 1.500000e+02
    endloop
  endfacet
  facet normal -6.585482e-01 7.265960e-01 1.958890e-01
    outer loop
      vertex -6.343933e+00 7.730105e+00 1.000000e+02
      vertex -7.071068e+00 7.071068e+00 1.000000e+02
      vertex 0.000000e+00 0.000000e+00 1.500000e+02
    endloop
  endfacet
  facet normal -7.265960e-01 6.585482e-01 1.958890e-01
    outer loop
      vertex -7.071068e+00 7.071068e+00 1.000000e+02
      vertex -7.730105e+00 6.343933e+00 1.000000e+02
      vertex 0.000000e+00 0.000000e+00 1.500000e+02
    endloop
  endfacet
  facet normal -7.876463e-01 5.841583e-01 1.958890e-01
    outer loop
      vertex -7.730105e+00 6.343933e+00 1.000000e+02
      vertex -8.314696e+00 5.555702e+00 1.000000e+02
      vertex 0.000000e+00 0.000000e+00 1.500000e+02
    endloop
  endfacet
  facet normal -8.411110e-01 5.041426e-01 1.958890e-01
    outer loop
      vertex -8.314696e+00 5.555702e+00 1.000000e+02
      vertex -8.819213e+00 4.713967e+00 1.000000e+02
      vertex 0.000000e+00 0.000000e+00 1.500000e+02
    endloop
  endfacet
  facet normal -8.864755e-01 4.192717e-01 1.958890e-01
    outer loop
      vertex -8.819213e+00 4.713967e+00 1.000000e+02
      vertex -9.238795e+00 3.826834e+00 1.000000e+02
      vertex 0.000000e+00 0.000000e+00 1.500000e+02
    endloop
  endfacet
  facet normal -9.233027e-01 3.303630e-01 1.958890e-01
    outer loop
      vertex -9.238795e+00 3.826834e+00 1.000000e+02
      vertex -9.569403e+00 2.902847e+00 1.000000e+02
      vertex 0.000000e+00 0.000000e+00 1.500000e+02
    endloop
  endfacet
  facet normal -9.512379e-01 2.382727e-01 1.958890e-01
    outer loop
      vertex -9.569403e+00 2.902847e+00 1.000000e+02
      vertex -9.807853e+00 1.950903e+00 1.000000e+02
      vertex 0.000000e+00 0.000000e+00 1.500000e+02
    endloop
  endfacet
  facet normal -9.700123e-01 1.438877e-01 1.958890e-01
    outer loop
      vertex -9.807853e+00 1.950903e+00 1.000000e+02
      vertex -9.951847e+00 9.801714e-01 1.000000e+02
      vertex 0.000000e+00 0.000000e+00 1.500000e+02
    endloop
  endfacet
  facet normal -9.794449e-01 4.811704e-02 1.958890e-01
    outer loop
      vertex -9.951847e+00 9.801714e-01 1.000000e+02
      vertex -1.000000e+01 1.224647e-15 1.000000e+02
      vertex 0.000000e+00 0.000000e+00 1.500000e+02
    endloop
  endfacet
  facet normal -9.794449e-01 -4.811704e-02 1.958890e-01
    outer loop
      vertex -1.000000e+01 1.224647e-15 1.000000e+02
      vertex -9.951847e+00 -9.801714e-01 1.000000e+02
      vertex 0.000000e+00 0.000000e+00 1.500000e+02
    endloop
  endfacet
  facet normal -9.700123e-01 -1.438877e-01 1.958890e-01
    outer loop
      vertex -9.951847e+00 -9.801714e-01 1.000000e+02
      vertex -9.807853e+00 -1.950903e+00 1.000000e+02
      vertex 0.000000e+00 0.000000e+00 1.500000e+02
    endloop
  endfacet
  facet normal -9.512379e-01 -2.382727e-01 1.958890e-01
    outer loop
      vertex -9.807853e+00 -1.950903e+00 1.000000e+02
      vertex -9.569403e+00 -2.902847e+00 1.000000e+02
      vertex 0.000000e+00 0.000000e+00 1.500000e+02
    endloop
  endfacet
  facet normal -9.233027e-01 -3.303630e-01 1.958890e-01
    outer loop
      vertex -9.569403e+00 -2.902847e+00 1.000000e+02
      vertex -9.238795e+00 -3.826834e+00 1.000000e+02
      vertex 0.000000e+00 0.000000e+00 1.500000e+02
    endloop
  endfacet
  facet normal -8.864755e-01 -4.192717e-01 1.958890e-01
    outer loop
      vertex -9.238795e+00 -3.826834e+00 1.000000e+02
      vertex -8.819213e+00 -4.713967e+00 1.000000e+02
      vertex 0.000000e+00 0.000000e+00 1.500000e+02
    endloop
  endfacet
  facet normal -8.411110e-01 -5.041426e-01 1.958890e-01
    outer loop
      vertex -8.819213e+00 -4.713967e+00 1.000000e+02
      vertex -8.314696e+00 -5.555702e+00 1.000000e+02
      vertex 0.000000e+00 0.000000e+00 1.500000e+02
    endloop
  endfacet
  facet normal -7.876463e-01 -5.841583e-01 1.958890e-01
    outer loop
      vertex -8.314696e+00 -5.555702e+00 1.000000e+02
      vertex -7.730105e+00 -6.343933e+00 1.000000e+02
      vertex 0.000000e+00 0.000000e+00 1.500000e+02
    endloop
  endfacet
  facet normal -7.265960e-01 -6.585482e-01 1.958890e-01
    outer loop
      vertex -7.730105e+00 -6.343933e+00 1.000000e+02
      vertex -7.071068e+00 -7.071068e+00 1.000000e+02
      vertex 0.000000e+00 0.000000e+00 1.500000e+02
    endloop
  endfacet
  facet normal -6.585482e-01 -7.265960e-01 1.958890e-01
    outer loop
      vertex -7.071068e+00 -7.071068e+00 1.000000e+02
      vertex -6.343933e+00 -7.730105e+00 1.000000e+02
      vertex 0.000000e+00 0.000000e+00 1.500000e+02
    endloop
  endfacet
  facet normal -5.841583e-01 -7.876463e-01 1.958890e-01
    outer loop
      vertex -6.343933e+00 -7.730105e+00 1.000000e+02
      vertex -5.555702e+00 -8.314696e+00 1.000000e+02
      vertex 0.000000e+00 0.000000e+00 1.500000e+02
    endloop
  endfacet
  facet normal -5.041426e-01 -8.411110e-01 1.958890e-01
    outer loop
      vertex -5.555702e+00 -8.314696e+00 1.000000e+02
      vertex -4.713967e+00 -8.819213e+00 1.000000e+02
      vertex 0.000000e+00 0.000000e+00 1.500000e+02
    endloop
  endfacet
  facet normal -4.192717e-01 -8.864755e-01 1.958890e-01
    outer loop
      vertex -4.713967e+00 -8.819213e+00 1.000000e+02
      vertex -3.826834e+00 -9.238795e+00 1.000000e+02
      vertex 0.000000e+00 0.000000e+00 1.500000e+02
    endloop
  endfacet
  facet normal -3.303630e-01 -9.233027e-01 1.958890e-01
    outer loop
      vertex -3.826834e+00 -9.238795e+00 1.000000e+02
      vertex -2.902847e+00 -9.569403e+00 1.000000e+02
      vertex 0.000000e+00 0.000000e+00 1.500000e+02
    endloop
  endfacet
  facet normal -2.382727e-01 -9.512379e-01 1.958890e-01
    outer loop
      vertex -2.902847e+00 -9.569403e+00 1.000000e+02
      vertex -1.950903e+00 -9.807853e+00 1.000000e+02
      vertex 0.000000e+00 0.000000e+00 1.500000e+02
    endloop
  endfacet
  facet normal -1.438877e-01 -9.700123e-01 1.958890e-01
    outer loop
      vertex -1.950903e+00 -9.807853e+00 1.000000e+02
      vertex -9.801714e-01 -9.951847e+00 1.000000e+02
      vertex 0.000000e+00 0.000000e+00 1.500000e+02
    endloop
  endfacet
  facet normal -4.811704e-02 -9.794449e-01 1.958890e-01
    outer loop
      vertex -9.801714e-01 -9.951847e+00 1.000000e+02
      vertex -1.836970e-15 -1.000000e+01 1.000000e+02
      vertex 0.000000e+00 0.000000e+00 1.500000e+02
    endloop
  endfacet
  facet normal 4.811704e-02 -9.794449e-01 1.958890e-01
    outer loop
      vertex -1.836970e-15 -1.000000e+01 1.000000e+02
      vertex 9.801714e-01 -9.951847e+00 1.000000e+02
      vertex 0.000000e+00 0.000000e+00 1.500000e+02
    endloop
  endfacet
  facet normal 1.438877e-01 -9.700123e-01 1.958890e-01
    outer loop
      vertex 9.801714e-01 -9.951847e+00 1.000000e+02
      vertex 1.950903e+00 -9.807853e+00 1.000000e+02
      vertex 0.000000e+00 0.000000e+00 1.500000e+02
    endloop
  endfacet
  facet normal 2.382727e-01 -9.512379e-01 1.958890e-01
    outer loop
      vertex 1.950903e+00 -9.807853e+00 1.000000e+02
      vertex 2.902847e+00 -9.569403e+00 1.000000e+02
      vertex 0.000000e+00 0.000000e+00 1.500000e+02
    endloop
  endfacet
  facet normal 3.303630e-01 -9.233027e-01 1.958890e-01
    outer loop
      vertex 2.902847e+00 -9.569403e+00 1.000000e+02
      vertex 3.826834e+00 -9.238795e+00 1.000000e+02
      vertex 0.000000e+00 0.000000e+00 1.500000e+02
    endloop
  endfacet
  facet normal 4.192717e-01 -8.864755e-01 1.958890e-01
    outer loop
      vertex 3.826834e+00 -9.238795e+00 1.000000e+02
      vertex 4.713967e+00 -8.819213e+00 1.000000e+02
      vertex 0.000000e+00 0.000000e+00 1.500000e+02
    endloop
  endfacet
  facet normal 5.041426e-01 -8.411110e-01 1.958890e-01
    outer loop
      vertex 4.713967e+00 -8.819213e+00 1.000000e+02
      vertex 5.555702e+00 -8.314696e+00 1.000000e+02
      vertex 0.000000e+00 0.000000e+00 1.500000e+02
    endloop
  endfacet
  facet normal 5.841583e-01 -7.876463e-01 1.958890e-01
    outer loop
      vertex 5.555702e+00 -8.314696e+00 1.000000e+02
      vertex 6.343933e+00 -7.730105e+00 1.000000e+02
      vertex 0.000000e+00 0.000000e+00 1.500000e+02
    endloop
  endfacet
  facet normal 6.585482e-01 -7.265960e-01 1.958890e-01
    outer loop
      vertex 6.343933e+00 -7.730105e+00 1.000000e+02
      vertex 7.071068e+00 -7.071068e+00 1.000000e+02
      vertex 0.000000e+00 0.000000e+00 1.500000e+02
    endloop
  endfacet
  facet normal 7.265960e-01 -6.585482e-01 1.958890e-01
    outer loop
      vertex 7.071068e+00 -7.071068e+00 1.000000e+02
      vertex 7.730105e+00 -6.343933e+00 1.000000e+02
      vertex 0.000000e+00 0.000000e+00 1.500000e+02
    endloop
  endfacet
  facet normal 7.876463e-01 -5.841583e-01 1.958890e-01
    outer loop
      vertex 7.730105e+00 -6.343933e+00 1.000000e+02
      vertex 8.314696e+00 -5.555702e+00 1.000000e+02
      vertex 0.000000e+00 0.000000e+00 1.500000e+02
    endloop
  endfacet
  facet normal 8.411110e-01 -5.041426e-01 1.958890e-01
    outer loop
      vertex 8.314696e+00 -5.555702e+00 1.000000e+02
      vertex 8.819213e+00 -4.713967e+00 1.000000e+02
      vertex 0.000000e+00 0.000000e+00 1.500000e+02
    endloop
  endfacet
  facet normal 8.864755e-01 -4.192717e-01 1.958890e-01
    outer loop
      vertex 8.819213e+00 -4.713967e+00 1.000000e+02
      vertex 9.238795e+00 -3.826834e+00 1.000000e+02
      vertex 0.000000e+00 0.000000e+00 1.500000e+02
    endloop
  endfacet
  facet normal 9.233027e-01 -3.303630e-01 1.958890e-01
    outer loop
      vertex 9.238795e+00 -3.826834e+00 1.000000e+02
      vertex 9.569403e+00 -2.902847e+00 1.000000e+02
      vertex 0.000000e+00 0.000000e+00 1.500000e+02
    endloop
  endfacet
  facet normal 9.512379e-01 -2.382727e-01 1.958890e-01
    outer loop
      vertex 9.569403e+00 -2.902847e+00 1.000000e+02
      vertex 9.807853e+00 -1.950903e+00 1.000000e+02
      vertex 0.000000e+00 0.000000e+00 1.500000e+02
    endloop
  endfacet
  facet normal 9.700123e-01 -1.438877e-01 1.958890e-01
    outer loop
      vertex 9.807853e+00 -1.950903e+00 1.000000e+02
      vertex 9.951847e+00 -9.801714e-01 1.000000e+02
      vertex 0.000000e+00 0.000000e+00 1.500000e+02
    endloop
  endfacet
  facet normal 9.794449e-01 -4.811704e-02 1.958890e-01
    outer loop
      vertex 9.951847e+00 -9.801714e-01 1.000000e+02
      vertex 1.000000e+01 -2.449294e-15 1.000000e+02
      vertex 0.000000e+00 0.000000e+00 1.500000e+02
    endloop
  endfacet
  facet normal 0.000000e+00 1.000000e+00 0.000000e+00
    outer loop
      vertex 1.000000e+01 5.000000e-01 1.000000e+01
      vertex 1.000000e+01 5.000000e-01 3.000000e+01
      vertex 2.500000e+01 5.000000e-01 2.000000e+01
    endloop
  endfacet
  facet normal 0.000000e+00 -1.000000e+00 0.000000e+00
    outer loop
      vertex 1.000000e+01 -5.000000e-01 1.000000e+01
      vertex 2.500000e+01 -5.000000e-01 2.000000e+01
      vertex 1.000000e+01 -5.000000e-01 3.000000e+01
    endloop
  endfacet
  facet normal 1.000000e+00 0.000000e+00 -0.000000e+00
    outer loop
      vertex 1.000000e+01 5.000000e-01 1.000000e+01
      vertex 1.000000e+01 5.000000e-01 3.000000e+01
      vertex 1.000000e+01 -5.000000e-01 3.000000e+01
    endloop
  endfacet
  facet normal 1.000000e+00 0.000000e+00 0.000000e+00
    outer loop
      vertex 1.000000e+01 5.000000e-01 1.000000e+01
      vertex 1.000000e+01 -5.000000e-01 3.000000e+01
      vertex 1.000000e+01 -5.000000e-01 1.000000e+01
    endloop
  endfacet
  facet normal -5.547002e-01 0.000000e+00 -8.320503e-01
    outer loop
      vertex 1.000000e+01 5.000000e-01 3.000000e+01
      vertex 2.500000e+01 5.000000e-01 2.000000e+01
      vertex 2.500000e+01 -5.000000e-01 2.000000e+01
    endloop
  endfacet
  facet normal -5.547002e-01 -0.000000e+00 -8.320503e-01
    outer loop
      vertex 1.000000e+01 5.000000e-01 3.000000e+01
      vertex 2.500000e+01 -5.000000e-01 2.000000e+01
      vertex 1.000000e+01 -5.000000e-01 3.000000e+01
    endloop
  endfacet
  facet normal -5.547002e-01 0.000000e+00 8.320503e-01
    outer loop
      vertex 2.500000e+01 5.000000e-01 2.000000e+01
      vertex 1.000000e+01 5.000000e-01 1.000000e+01
      vertex 1.000000e+01 -5.000000e-01 1.000000e+01
    endloop
  endfacet
  facet normal -5.547002e-01 0.000000e+00 8.320503e-01
    outer loop
      vertex 2.500000e+01 5.000000e-01 2.000000e+01
      vertex 1.000000e+01 -5.000000e-01 1.000000e+01
      vertex 2.500000e+01 -5.000000e-01 2.000000e+01
    endloop
  endfacet
  facet normal -1.000000e+00 6.291264e-17 0.000000e+00
    outer loop
      vertex -5.000000e-01 1.000000e+01 1.000000e+01
      vertex -5.000000e-01 1.000000e+01 3.000000e+01
      vertex -5.000000e-01 2.500000e+01 2.000000e+01
    endloop
  endfacet
  facet normal 1.000000e+00 -5.921189e-17 0.000000e+00
    outer loop
      vertex 5.000000e-01 1.000000e+01 1.000000e+01
      vertex 5.000000e-01 2.500000e+01 2.000000e+01
      vertex 5.000000e-01 1.000000e+01 3.000000e+01
    endloop
  endfacet
  facet normal 0.000000e+00 1.000000e+00 0.000000e+00
    outer loop
      vertex -5.000000e-01 1.000000e+01 1.000000e+01
      vertex -5.000000e-01 1.000000e+01 3.000000e+01
      vertex 5.000000e-01 1.000000e+01 3.000000e+01
    endloop
  endfacet
  facet normal 0.000000e+00 1.000000e+00 0.000000e+00
    outer loop
      vertex -5.000000e-01 1.000000e+01 1.000000e+01
      vertex 5.000000e-01 1.000000e+01 3.000000e+01
      vertex 5.000000e-01 1.000000e+01 1.000000e+01
    endloop
  endfacet
  facet normal 0.000000e+00 -5.547002e-01 -8.320503e-01
    outer loop
      vertex -5.000000e-01 1.000000e+01 3.000000e+01
      vertex -5.000000e-01 2.500000e+01 2.000000e+01
      vertex 5.000000e-01 2.500000e+01 2.000000e+01
    endloop
  endfacet
  facet normal 0.000000e+00 -5.547002e-01 -8.320503e-01
    outer loop
      vertex -5.000000e-01 1.000000e+01 3.000000e+01
      vertex 5.000000e-01 2.500000e+01 2.000000e+01
      vertex 5.000000e-01 1.000000e+01 3.000000e+01
    endloop
  endfacet
  facet normal 0.000000e+00 -5.547002e-01 8.320503e-01
    outer loop
      vertex -5.000000e-01 2.500000e+01 2.000000e+01
      vertex -5.000000e-01 1.000000e+01 1.000000e+01
      vertex 5.000000e-01 1.000000e+01 1.000000e+01
    endloop
  endfacet
  facet normal 0.000000e+00 -5.547002e-01 8.320503e-01
    outer loop
      vertex -5.000000e-01 2.500000e+01 2.000000e+01
      vertex 5.000000e-01 1.000000e+01 1.000000e+01
      vertex 5.000000e-01 2.500000e+01 2.000000e+01
    endloop
  endfacet
  facet normal -1.221245e-16 -1.000000e+00 0.000000e+00
    outer loop
      vertex -1.000000e+01 -5.000000e-01 1.000000e+01
      vertex -1.000000e+01 -5.000000e-01 3.000000e+01
      vertex -2.500000e+01 -5.000000e-01 2.000000e+01
    endloop
  endfacet
  facet normal 1.258253e-16 1.000000e+00 -0.000000e+00
    outer loop
      vertex -1.000000e+01 5.000000e-01 1.000000e+01
      vertex -2.500000e+01 5.000000e-01 2.000000e+01
      vertex -1.000000e+01 5.000000e-01 3.000000e+01
    endloop
  endfacet
  facet normal -1.000000e+00 0.000000e+00 0.000000e+00
    outer loop
      vertex -1.000000e+01 -5.000000e-01 1.000000e+01
      vertex -1.000000e+01 -5.000000e-01 3.000000e+01
      vertex -1.000000e+01 5.000000e-01 3.000000e+01
    endloop
  endfacet
  facet normal -1.000000e+00 0.000000e+00 0.000000e+00
    outer loop
      vertex -1.000000e+01 -5.000000e-01 1.000000e+01
      vertex -1.000000e+01 5.000000e-01 3.000000e+01
      vertex -1.000000e+01 5.000000e-01 1.000000e+01
    endloop
  endfacet
  facet normal 5.547002e-01 0.000000e+00 -8.320503e-01
    outer loop
      vertex -1.000000e+01 -5.000000e-01 3.000000e+01
      vertex -2.500000e+01 -5.000000e-01 2.000000e+01
      vertex -2.500000e+01 5.000000e-01 2.000000e+01
    endloop
  endfacet
  facet normal 5.547002e-01 0.000000e+00 -8.320503e-01
    outer loop
      vertex -1.000000e+01 -5.000000e-01 3.000000e+01
      vertex -2.500000e+01 5.000000e-01 2.000000e+01
      vertex -1.000000e+01 5.000000e-01 3.000000e+01
    endloop
  endfacet
  facet normal 5.547002e-01 0.000000e+00 8.320503e-01
    outer loop
      vertex -2.500000e+01 -5.000000e-01 2.000000e+01
      vertex -1.000000e+01 -5.000000e-01 1.000000e+01
      vertex -1.000000e+01 5.000000e-01 1.000000e+01
    endloop
  endfacet
  facet normal 5.547002e-01 -0.000000e+00 8.320503e-01
    outer loop
      vertex -2.500000e+01 -5.000000e-01 2.000000e+01
      vertex -1.000000e+01 5.000000e-01 1.000000e+01
      vertex -2.500000e+01 5.000000e-01 2.000000e+01
    endloop
  endfacet
  facet normal 1.000000e+00 -1.850372e-16 0.000000e+00
    outer loop
      vertex 5.000000e-01 -1.000000e+01 1.000000e+01
      vertex 5.000000e-01 -1.000000e+01 3.000000e+01
      vertex 5.000000e-01 -2.500000e+01 2.000000e+01
    endloop
  endfacet
  facet normal -1.000000e+00 1.776357e-16 0.000000e+00
    outer loop
      vertex -5.000000e-01 -1.000000e+01 1.000000e+01
      vertex -5.000000e-01 -2.500000e+01 2.000000e+01
      vertex -5.000000e-01 -1.000000e+01 3.000000e+01
    endloop
  endfacet
  facet normal 0.000000e+00 -1.000000e+00 0.000000e+00
    outer loop
      vertex 5.000000e-01 -1.000000e+01 1.000000e+01
      vertex 5.000000e-01 -1.000000e+01 3.000000e+01
      vertex -5.000000e-01 -1.000000e+01 3.000000e+01
    endloop
  endfacet
  facet normal 0.000000e+00 -1.000000e+00 0.000000e+00
    outer loop
      vertex 5.000000e-01 -1.000000e+01 1.000000e+01
      vertex -5.000000e-01 -1.000000e+01 3.000000e+01
      vertex -5.000000e-01 -1.000000e+01 1.000000e+01
    endloop
  endfacet
  facet normal 0.000000e+00 5.547002e-01 -8.320503e-01
    outer loop
      vertex 5.000000e-01 -1.000000e+01 3.000000e+01
      vertex 5.000000e-01 -2.500000e+01 2.000000e+01
      vertex -5.000000e-01 -2.500000e+01 2.000000e+01
    endloop
  endfacet
  facet normal 0.000000e+00 5.547002e-01 -8.320503e-01
    outer loop
      vertex 5.000000e-01 -1.000000e+01 3.000000e+01
      vertex -5.000000e-01 -2.500000e+01 2.000000e+01
      vertex -5.000000e-01 -1.000000e+01 3.000000e+01
    endloop
  endfacet
  facet normal 0.000000e+00 5.547002e-01 8.320503e-01
    outer loop
      vertex 5.000000e-01 -2.500000e+01 2.000000e+01
      vertex 5.000000e-01 -1.000000e+01 1.000000e+01
      vertex -5.000000e-01 -1.000000e+01 1.000000e+01
    endloop
  endfacet
  facet normal 0.000000e+00 5.547002e-01 8.320503e-01
    outer loop
      vertex 5.000000e-01 -2.500000e+01 2.000000e+01
      vertex -5.000000e-01 -1.000000e+01 1.000000e+01
      vertex -5.000000e-01 -2.500000e+01 2.000000e+01
    endloop
  endfacet
endsolid model_rocket
